<svg width="28" height="28" viewBox="0 0 28 28" fill="none" xmlns="http://www.w3.org/2000/svg">
<g id="R&#195;&#169;veil">
<path id="alarm" d="M4.46134 5.90994C4.63259 5.90994 4.75817 5.87584 4.92942 5.75082L8.97094 2.80713C9.15361 2.67074 9.26777 2.47753 9.26777 2.28431C9.26777 2.03427 9.14219 1.81832 8.93669 1.63647C8.44577 1.22731 7.65802 1 6.92735 1C5.07784 1 3.58225 2.4548 3.58225 4.26192C3.58225 4.72791 3.66217 5.15981 3.78775 5.44395C3.91334 5.72809 4.1645 5.90994 4.46134 5.90994ZM23.5387 5.90994C23.8355 5.90994 24.0752 5.71672 24.2122 5.44395C24.3378 5.17117 24.4063 4.72791 24.4063 4.26192C24.4063 2.4548 22.9222 1 21.0727 1C20.3306 1 19.5542 1.22731 19.0633 1.63647C18.8578 1.81832 18.7322 2.03427 18.7322 2.28431C18.7322 2.47753 18.835 2.67074 19.0291 2.80713L23.0706 5.75082C23.2418 5.87584 23.3674 5.90994 23.5387 5.90994ZM4.34717 24.7086C4.74676 25.1064 5.37468 25.0951 5.77426 24.6859L7.62377 22.856C9.41619 24.129 11.6196 24.8791 13.9943 24.8791C16.3804 24.8791 18.5724 24.129 20.3762 22.856L22.2257 24.6859C22.6253 25.0951 23.2532 25.1064 23.6528 24.7086C24.0296 24.3336 24.041 23.7198 23.6414 23.3334L21.8718 21.5831C23.8012 19.6055 25 16.9118 25 13.934C25 7.88755 20.0794 2.98898 13.9943 2.98898C7.9206 2.98898 3 7.88755 3 13.934C3 16.9118 4.18734 19.6055 6.12818 21.5831L4.35859 23.3334C3.959 23.7198 3.97042 24.3336 4.34717 24.7086ZM13.9943 22.5946C9.18786 22.5946 5.29476 18.719 5.29476 13.934C5.29476 9.14913 9.18786 5.27346 13.9943 5.27346C18.8007 5.27346 22.6938 9.14913 22.6938 13.934C22.6938 18.719 18.8007 22.5946 13.9943 22.5946ZM9.03944 15.3434H13.9943C14.4966 15.3434 14.8848 14.9569 14.8848 14.4569V7.85345C14.8848 7.35337 14.4966 6.96693 13.9943 6.96693C13.492 6.96693 13.1038 7.35337 13.1038 7.85345V13.5703H9.03944C8.5371 13.5703 8.14894 13.9681 8.14894 14.4569C8.14894 14.9569 8.5371 15.3434 9.03944 15.3434Z" fill="#FDE5D4"/>
</g>
</svg>
