<svg width="28" height="28" viewBox="0 0 28 28" fill="none" xmlns="http://www.w3.org/2000/svg">
<g id="Journal">
<path id="text.book.closed" d="M7.76963 26H22.9063C23.523 26 24 25.5457 24 24.9584C24 24.4598 23.6393 24.0942 23.1972 23.8947C21.7661 23.2853 21.4869 21.4017 22.9412 20.0831C23.5346 19.5845 23.9884 19.0305 23.9884 17.9114V5.64543C23.9884 3.25208 22.6969 2 20.1955 2H7.7929C5.30308 2 4 3.241 4 5.64543V22.3878C4 24.759 5.30308 26 7.76963 26ZM19.986 4.20499C21.1146 4.20499 21.6731 4.77008 21.6731 5.78947V17.5679C21.6731 18.1108 21.3473 18.41 20.7656 18.41H9.34031V4.20499H19.986ZM6.3153 18.7978V5.78947C6.3153 4.86981 6.76905 4.32687 7.68819 4.22715V18.4211C7.16463 18.4654 6.71088 18.5983 6.3153 18.7978ZM11.4229 9.27978H19.5556C20.0093 9.27978 20.3816 8.92521 20.3816 8.49307C20.3816 8.06094 20.0093 7.70637 19.5556 7.70637H11.4229C10.9692 7.70637 10.5969 8.06094 10.5969 8.49307C10.5969 8.92521 10.9692 9.27978 11.4229 9.27978ZM11.4229 12.3712H17.5893C18.043 12.3712 18.4154 12.0166 18.4154 11.5845C18.4154 11.1524 18.043 10.7978 17.5893 10.7978H11.4229C10.9692 10.7978 10.5969 11.1524 10.5969 11.5845C10.5969 12.0166 10.9692 12.3712 11.4229 12.3712ZM8.08377 23.9169C6.83886 23.9169 6.18732 23.241 6.18732 22.1994C6.18732 21.1911 6.93194 20.4931 8.16521 20.4931H19.7766C19.9046 20.4931 20.0326 20.482 20.1489 20.4598C19.5672 21.6343 19.637 22.9086 20.2653 23.9169H8.08377Z" fill="#FDE5D4"/>
</g>
</svg>
