<svg width="28" height="28" viewBox="0 0 28 28" fill="none" xmlns="http://www.w3.org/2000/svg">
<path d="M7.76963 26H22.9063C23.523 26 24 25.5457 24 24.9584C24 24.4598 23.6393 24.0942 23.1972 23.8947C21.7661 23.2853 21.4869 21.4017 22.9412 20.0831C23.5346 19.5845 23.9884 19.0305 23.9884 17.9114V5.64543C23.9884 3.25208 22.6969 2 20.1955 2H7.7929C5.30308 2 4 3.241 4 5.64543V22.3878C4 24.759 5.30308 26 7.76963 26ZM7.61838 18.6981C7.23444 18.6981 6.90867 18.3989 6.90867 18.0222V4.5374C6.90867 4.16066 7.23444 3.8615 7.61838 3.8615C8.00233 3.8615 8.3281 4.16066 8.3281 4.5374V18.0222C8.3281 18.3989 8.00233 18.6981 7.61838 18.6981ZM11.5742 9.25762C11.1088 9.25762 10.7016 8.88089 10.7016 8.43767C10.7016 7.9723 11.1088 7.60665 11.5742 7.60665H19.9977C20.4747 7.60665 20.8703 7.9723 20.8703 8.43767C20.8703 8.88089 20.4747 9.25762 19.9977 9.25762H11.5742ZM11.5742 12.4709C11.1088 12.4709 10.7016 12.1053 10.7016 11.6399C10.7016 11.1967 11.1088 10.8199 11.5742 10.8199H17.9732C18.4503 10.8199 18.8458 11.1967 18.8458 11.6399C18.8458 12.1053 18.4503 12.4709 17.9732 12.4709H11.5742ZM8.08377 23.9169C6.83886 23.9169 6.18732 23.241 6.18732 22.1994C6.18732 21.1911 6.93194 20.4931 8.16521 20.4931H19.7766C19.9046 20.4931 20.0326 20.482 20.1489 20.4598C19.5672 21.6343 19.637 22.9086 20.2653 23.9169H8.08377Z" fill="#FDE5D4"/>
</svg>
